# xmcd
#
# Track frame offsets: 
#        150
#        31798
#        57598
#        82827
#        121586
#        149544
#        180992
#        200256
#        229696
#        255265
#        293450
#
# Disc length: 4314 seconds
#
# Revision: 2
# Processed by: cddbd v1.5.2PL0 Copyright (c) Steve Scherf et al.
# Submitted via: ExactAudioCopy v0.99pb3
#
DISCID=8210d80b
DTITLE=Pressure Drop - Food Of Love (2)
DYEAR=2003
DGENRE=Electronic
TTITLE0=Back2Back (Dorfmeister Vs Madrid De Los Austrias Dub)
TTITLE1=Unify (Ripped) (Maddslinky Version)
TTITLE2=Groove Me (Cuica Version)
TTITLE3=You're Mine (Adam Freeland Version)
TTITLE4=Part 13 (DJ Rocca Version)
TTITLE5=Spirits Fall (Ed Solo and Skool Of Thought Version)
TTITLE6=Everything'll Be Alright Tomorrow (Black Grass Version)
TTITLE7=Metamorph (Pressure Drop Version)
TTITLE8=Legacy (Manasseh Version)
TTITLE9=Legacy (Paul Daley Version)
TTITLE10=The Calling (Freeman Version)
EXTD=
EXTT0=
EXTT1=
EXTT2=
EXTT3=
EXTT4=
EXTT5=
EXTT6=
EXTT7=
EXTT8=
EXTT9=
EXTT10=
PLAYORDER=
